{
  "asset": {
    "version": "2.0",
    "generator": "Sketchup glTF Exporter v1.2.6 by Centaur"
  },
  "scene": 0,
  "scenes": [
    {
      "nodes": [
        0
      ]
    }
  ],
  "samplers": [
    {
    }
  ],
  "nodes": [
    {
      "name": "root",
      "mesh": 0
    }
  ],
  "materials": [
    {
      "pbrMetallicRoughness": {
        "baseColorFactor": [
          0.2176,
          0.2176,
          0.2176,
          1.0
        ],
        "metallicFactor": 0.1,
        "roughnessFactor": 0.9
      },
      "name": "default material",
      "doubleSided": true
    },
    {
      "pbrMetallicRoughness": {
        "baseColorTexture": {
          "index": 0
        },
        "metallicFactor": 0.1,
        "roughnessFactor": 0.9
      },
      "name": "F4U1FUSD1"
    },
    {
      "pbrMetallicRoughness": {
        "baseColorTexture": {
          "index": 1
        },
        "metallicFactor": 0.1,
        "roughnessFactor": 0.9
      },
      "name": "F4U1BLDE1"
    },
    {
      "pbrMetallicRoughness": {
        "baseColorFactor": [
          0.0738,
          0.1087,
          0.212,
          1.0
        ],
        "metallicFactor": 0.1,
        "roughnessFactor": 0.9
      },
      "name": "F4U1BLUE1"
    },
    {
      "pbrMetallicRoughness": {
        "baseColorFactor": [
          0.0066,
          0.0066,
          0.0066,
          1.0
        ],
        "metallicFactor": 0.1,
        "roughnessFactor": 0.9
      },
      "name": "F4U1BLK1"
    },
    {
      "pbrMetallicRoughness": {
        "baseColorFactor": [
          0.8994,
          0.7893,
          0.6941,
          1.0
        ],
        "metallicFactor": 0.1,
        "roughnessFactor": 0.9
      },
      "name": "F4U1WHTE1"
    },
    {
      "pbrMetallicRoughness": {
        "baseColorTexture": {
          "index": 2
        },
        "metallicFactor": 0.1,
        "roughnessFactor": 0.9
      },
      "name": "F4U1WGLD1"
    },
    {
      "pbrMetallicRoughness": {
        "baseColorFactor": [
          0.0738,
          0.1087,
          0.212,
          1.0
        ],
        "metallicFactor": 0.1,
        "roughnessFactor": 0.9
      },
      "name": "F4U1BLU1"
    },
    {
      "pbrMetallicRoughness": {
        "baseColorFactor": [
          0.8994,
          0.7893,
          0.6941,
          1.0
        ],
        "metallicFactor": 0.1,
        "roughnessFactor": 0.9
      },
      "name": "F4U1WHT1"
    },
    {
      "pbrMetallicRoughness": {
        "baseColorTexture": {
          "index": 3
        },
        "metallicFactor": 0.1,
        "roughnessFactor": 0.9
      },
      "name": "F4U1WGRD1"
    },
    {
      "pbrMetallicRoughness": {
        "baseColorFactor": [
          0.1332,
          0.1801,
          0.0199,
          1.0
        ],
        "metallicFactor": 0.1,
        "roughnessFactor": 0.9
      },
      "name": "F4U1INT1"
    },
    {
      "pbrMetallicRoughness": {
        "baseColorTexture": {
          "index": 4
        },
        "metallicFactor": 0.1,
        "roughnessFactor": 0.9
      },
      "name": "F4U1WHNT1"
    },
    {
      "pbrMetallicRoughness": {
        "baseColorFactor": [
          0.0738,
          0.1087,
          0.212,
          1.0
        ],
        "metallicFactor": 0.1,
        "roughnessFactor": 0.9
      },
      "name": "F4U1CAFR1"
    },
    {
      "pbrMetallicRoughness": {
        "baseColorFactor": [
          0.0,
          0.0915,
          0.0265,
          0.2
        ],
        "metallicFactor": 0.1,
        "roughnessFactor": 0.9
      },
      "name": "F4U1GLS1",
      "doubleSided": true,
      "alphaMode": "BLEND"
    },
    {
      "pbrMetallicRoughness": {
        "baseColorFactor": [
          0.0066,
          0.0066,
          0.0066,
          1.0
        ],
        "metallicFactor": 0.1,
        "roughnessFactor": 0.9
      },
      "name": "F4U1ENG1"
    },
    {
      "pbrMetallicRoughness": {
        "baseColorFactor": [
          0.1036,
          0.145,
          0.1975,
          1.0
        ],
        "metallicFactor": 0.1,
        "roughnessFactor": 0.9
      },
      "name": "F4U1CON1"
    },
    {
      "pbrMetallicRoughness": {
        "baseColorFactor": [
          0.037,
          0.0385,
          0.0415,
          1.0
        ],
        "metallicFactor": 0.1,
        "roughnessFactor": 0.9
      },
      "name": "F4U1CHR1"
    },
    {
      "pbrMetallicRoughness": {
        "baseColorTexture": {
          "index": 5
        },
        "metallicFactor": 0.1,
        "roughnessFactor": 0.9
      },
      "name": "F4U1TLRT1"
    },
    {
      "pbrMetallicRoughness": {
        "baseColorTexture": {
          "index": 6
        },
        "metallicFactor": 0.1,
        "roughnessFactor": 0.9
      },
      "name": "F4U1TLLT1"
    }
  ],
  "images": [
    {
      "bufferView": 0,
      "mimeType": "image/jpeg"
    },
    {
      "bufferView": 1,
      "mimeType": "image/jpeg"
    },
    {
      "bufferView": 2,
      "mimeType": "image/jpeg"
    },
    {
      "bufferView": 3,
      "mimeType": "image/jpeg"
    },
    {
      "bufferView": 4,
      "mimeType": "image/jpeg"
    },
    {
      "bufferView": 5,
      "mimeType": "image/jpeg"
    },
    {
      "bufferView": 6,
      "mimeType": "image/jpeg"
    }
  ],
  "textures": [
    {
      "source": 0,
      "sampler": 0
    },
    {
      "source": 1,
      "sampler": 0
    },
    {
      "source": 2,
      "sampler": 0
    },
    {
      "source": 3,
      "sampler": 0
    },
    {
      "source": 4,
      "sampler": 0
    },
    {
      "source": 5,
      "sampler": 0
    },
    {
      "source": 6,
      "sampler": 0
    }
  ],
  "meshes": [
    {
      "primitives": [
        {
          "attributes": {
            "POSITION": 0,
            "NORMAL": 1
          },
          "indices": 5,
          "mode": 4,
          "material": 0
        },
        {
          "attributes": {
            "POSITION": 2,
            "NORMAL": 3,
            "TEXCOORD_0": 4
          },
          "indices": 6,
          "mode": 4,
          "material": 1
        },
        {
          "attributes": {
            "POSITION": 2,
            "NORMAL": 3,
            "TEXCOORD_0": 4
          },
          "indices": 7,
          "mode": 4,
          "material": 2
        },
        {
          "attributes": {
            "POSITION": 0,
            "NORMAL": 1
          },
          "indices": 8,
          "mode": 4,
          "material": 3
        },
        {
          "attributes": {
            "POSITION": 0,
            "NORMAL": 1
          },
          "indices": 9,
          "mode": 4,
          "material": 4
        },
        {
          "attributes": {
            "POSITION": 0,
            "NORMAL": 1
          },
          "indices": 10,
          "mode": 4,
          "material": 5
        },
        {
          "attributes": {
            "POSITION": 2,
            "NORMAL": 3,
            "TEXCOORD_0": 4
          },
          "indices": 11,
          "mode": 4,
          "material": 6
        },
        {
          "attributes": {
            "POSITION": 0,
            "NORMAL": 1
          },
          "indices": 12,
          "mode": 4,
          "material": 7
        },
        {
          "attributes": {
            "POSITION": 0,
            "NORMAL": 1
          },
          "indices": 13,
          "mode": 4,
          "material": 8
        },
        {
          "attributes": {
            "POSITION": 2,
            "NORMAL": 3,
            "TEXCOORD_0": 4
          },
          "indices": 14,
          "mode": 4,
          "material": 9
        },
        {
          "attributes": {
            "POSITION": 0,
            "NORMAL": 1
          },
          "indices": 15,
          "mode": 4,
          "material": 10
        },
        {
          "attributes": {
            "POSITION": 2,
            "NORMAL": 3,
            "TEXCOORD_0": 4
          },
          "indices": 16,
          "mode": 4,
          "material": 11
        },
        {
          "attributes": {
            "POSITION": 0,
            "NORMAL": 1
          },
          "indices": 17,
          "mode": 4,
          "material": 12
        },
        {
          "attributes": {
            "POSITION": 0,
            "NORMAL": 1
          },
          "indices": 18,
          "mode": 4,
          "material": 13
        },
        {
          "attributes": {
            "POSITION": 0,
            "NORMAL": 1
          },
          "indices": 19,
          "mode": 4,
          "material": 14
        },
        {
          "attributes": {
            "POSITION": 0,
            "NORMAL": 1
          },
          "indices": 20,
          "mode": 4,
          "material": 15
        },
        {
          "attributes": {
            "POSITION": 0,
            "NORMAL": 1
          },
          "indices": 21,
          "mode": 4,
          "material": 16
        },
        {
          "attributes": {
            "POSITION": 2,
            "NORMAL": 3,
            "TEXCOORD_0": 4
          },
          "indices": 22,
          "mode": 4,
          "material": 17
        },
        {
          "attributes": {
            "POSITION": 2,
            "NORMAL": 3,
            "TEXCOORD_0": 4
          },
          "indices": 23,
          "mode": 4,
          "material": 18
        }
      ]
    }
  ],
  "accessors": [
    {
      "bufferView": 7,
      "componentType": 5126,
      "count": 12760,
      "type": "VEC3",
      "min": [
        -4.040332589970561,
        1.3444340271290728e-14,
        -4.619910382969336
      ],
      "max": [
        3.9542110971388076,
        3.469544561484386,
        4.648112201249406
      ]
    },
    {
      "bufferView": 8,
      "componentType": 5126,
      "count": 12760,
      "type": "VEC3",
      "min": [
        -1.0,
        -1.0,
        -1.0
      ],
      "max": [
        1.0,
        1.0,
        1.0
      ]
    },
    {
      "bufferView": 9,
      "componentType": 5126,
      "count": 18904,
      "type": "VEC3",
      "min": [
        -4.040332589970561,
        0.3795214074609507,
        -4.961413363125586
      ],
      "max": [
        3.9542110971388076,
        3.469544561484386,
        4.989614526561907
      ]
    },
    {
      "bufferView": 10,
      "componentType": 5126,
      "count": 18904,
      "type": "VEC3",
      "min": [
        -0.9993544754206046,
        -0.999814963354211,
        -0.9999999999199171
      ],
      "max": [
        0.9999038287151656,
        1.0,
        0.9999999999210627
      ]
    },
    {
      "bufferView": 11,
      "componentType": 5126,
      "count": 18904,
      "type": "VEC2",
      "min": [
        -1302.9882812501278,
        -52.63613891604268
      ],
      "max": [
        24.31618499755905,
        54.6138572692887
      ]
    },
    {
      "bufferView": 12,
      "componentType": 5123,
      "count": 3150,
      "type": "SCALAR"
    },
    {
      "bufferView": 13,
      "componentType": 5123,
      "count": 5535,
      "type": "SCALAR"
    },
    {
      "bufferView": 13,
      "componentType": 5123,
      "count": 5292,
      "type": "SCALAR",
      "byteOffset": 11070
    },
    {
      "bufferView": 12,
      "componentType": 5123,
      "count": 120,
      "type": "SCALAR",
      "byteOffset": 6300
    },
    {
      "bufferView": 12,
      "componentType": 5123,
      "count": 2214,
      "type": "SCALAR",
      "byteOffset": 6540
    },
    {
      "bufferView": 12,
      "componentType": 5123,
      "count": 11157,
      "type": "SCALAR",
      "byteOffset": 10968
    },
    {
      "bufferView": 13,
      "componentType": 5123,
      "count": 3852,
      "type": "SCALAR",
      "byteOffset": 21654
    },
    {
      "bufferView": 12,
      "componentType": 5123,
      "count": 1647,
      "type": "SCALAR",
      "byteOffset": 33282
    },
    {
      "bufferView": 12,
      "componentType": 5123,
      "count": 1632,
      "type": "SCALAR",
      "byteOffset": 36576
    },
    {
      "bufferView": 13,
      "componentType": 5123,
      "count": 3780,
      "type": "SCALAR",
      "byteOffset": 29358
    },
    {
      "bufferView": 12,
      "componentType": 5123,
      "count": 894,
      "type": "SCALAR",
      "byteOffset": 39840
    },
    {
      "bufferView": 13,
      "componentType": 5123,
      "count": 168,
      "type": "SCALAR",
      "byteOffset": 36918
    },
    {
      "bufferView": 12,
      "componentType": 5123,
      "count": 1074,
      "type": "SCALAR",
      "byteOffset": 41628
    },
    {
      "bufferView": 12,
      "componentType": 5123,
      "count": 846,
      "type": "SCALAR",
      "byteOffset": 43776
    },
    {
      "bufferView": 12,
      "componentType": 5123,
      "count": 2106,
      "type": "SCALAR",
      "byteOffset": 45468
    },
    {
      "bufferView": 12,
      "componentType": 5123,
      "count": 2076,
      "type": "SCALAR",
      "byteOffset": 49680
    },
    {
      "bufferView": 12,
      "componentType": 5123,
      "count": 1470,
      "type": "SCALAR",
      "byteOffset": 53832
    },
    {
      "bufferView": 13,
      "componentType": 5123,
      "count": 447,
      "type": "SCALAR",
      "byteOffset": 37254
    },
    {
      "bufferView": 13,
      "componentType": 5123,
      "count": 528,
      "type": "SCALAR",
      "byteOffset": 38148
    }
  ],
  "bufferViews": [
    {
      "buffer": 0,
      "byteLength": 116365
    },
    {
      "buffer": 0,
      "byteOffset": 116365,
      "byteLength": 4328
    },
    {
      "buffer": 0,
      "byteOffset": 120693,
      "byteLength": 56335
    },
    {
      "buffer": 0,
      "byteOffset": 177028,
      "byteLength": 56335
    },
    {
      "buffer": 0,
      "byteOffset": 233363,
      "byteLength": 3230
    },
    {
      "buffer": 0,
      "byteOffset": 236593,
      "byteLength": 9743
    },
    {
      "buffer": 0,
      "byteOffset": 246336,
      "byteLength": 9779
    },
    {
      "buffer": 0,
      "byteOffset": 256116,
      "byteLength": 153120,
      "target": 34962,
      "byteStride": 12
    },
    {
      "buffer": 0,
      "byteOffset": 409236,
      "byteLength": 153120,
      "target": 34962,
      "byteStride": 12
    },
    {
      "buffer": 0,
      "byteOffset": 562356,
      "byteLength": 226848,
      "target": 34962,
      "byteStride": 12
    },
    {
      "buffer": 0,
      "byteOffset": 789204,
      "byteLength": 226848,
      "target": 34962,
      "byteStride": 12
    },
    {
      "buffer": 0,
      "byteOffset": 1016056,
      "byteLength": 151232,
      "target": 34962,
      "byteStride": 8
    },
    {
      "buffer": 0,
      "byteOffset": 1167288,
      "byteLength": 56772,
      "target": 34963
    },
    {
      "buffer": 0,
      "byteOffset": 1224060,
      "byteLength": 39204,
      "target": 34963
    }
  ],
  "buffers": [
    {
      "uri": "data:application/octet-stream;base64,",
      "byteLength": 1263264
    }
  ]
}