{
  "asset": {
    "version": "2.0",
    "generator": "Sketchup glTF Exporter v1.2.6 by Centaur"
  },
  "scene": 0,
  "scenes": [
    {
      "nodes": [
        0
      ]
    }
  ],
  "samplers": [
    {
    }
  ],
  "nodes": [
    {
      "name": "root",
      "mesh": 0
    }
  ],
  "materials": [
    {
      "pbrMetallicRoughness": {
        "baseColorTexture": {
          "index": 0
        },
        "metallicFactor": 0.1,
        "roughnessFactor": 0.9
      },
      "name": "Folheado de madeira 02",
      "doubleSided": true
    },
    {
      "pbrMetallicRoughness": {
        "baseColorTexture": {
          "index": 1
        },
        "metallicFactor": 0.1,
        "roughnessFactor": 0.9
      },
      "name": "Alumínio"
    },
    {
      "pbrMetallicRoughness": {
        "baseColorFactor": [
          0.212,
          0.212,
          0.212,
          1.0
        ],
        "metallicFactor": 0.1,
        "roughnessFactor": 0.9
      },
      "name": "<auto>1",
      "doubleSided": true
    },
    {
      "pbrMetallicRoughness": {
        "baseColorFactor": [
          0.0,
          0.0,
          1.0,
          0.251
        ],
        "metallicFactor": 0.1,
        "roughnessFactor": 0.9
      },
      "name": "<auto>4",
      "alphaMode": "BLEND"
    },
    {
      "pbrMetallicRoughness": {
        "baseColorFactor": [
          0.1275,
          0.3066,
          0.8513,
          0.5
        ],
        "metallicFactor": 0.1,
        "roughnessFactor": 0.9
      },
      "name": "Vidro translúcido azul",
      "doubleSided": true,
      "alphaMode": "BLEND"
    },
    {
      "pbrMetallicRoughness": {
        "baseColorTexture": {
          "index": 2
        },
        "metallicFactor": 0.1,
        "roughnessFactor": 0.9
      },
      "name": "[Cinder Block]3",
      "doubleSided": true
    },
    {
      "pbrMetallicRoughness": {
        "baseColorFactor": [
          0.2011,
          0.1835,
          0.1835,
          1.0
        ],
        "metallicFactor": 0.1,
        "roughnessFactor": 0.9
      },
      "name": "Chris_Shoe_Sole",
      "doubleSided": true
    },
    {
      "pbrMetallicRoughness": {
        "baseColorTexture": {
          "index": 3
        },
        "metallicFactor": 0.1,
        "roughnessFactor": 0.9
      },
      "name": "Madeira encaixada",
      "doubleSided": true
    },
    {
      "pbrMetallicRoughness": {
        "baseColorTexture": {
          "index": 4
        },
        "metallicFactor": 0.1,
        "roughnessFactor": 0.9
      },
      "name": "Telhado estilo espanhol",
      "doubleSided": true
    },
    {
      "pbrMetallicRoughness": {
        "baseColorTexture": {
          "index": 5
        },
        "metallicFactor": 0.1,
        "roughnessFactor": 0.9
      },
      "name": "Azulejo branco",
      "doubleSided": true
    }
  ],
  "images": [
    {
      "bufferView": 0,
      "mimeType": "image/jpeg"
    },
    {
      "bufferView": 1,
      "mimeType": "image/jpeg"
    },
    {
      "bufferView": 2,
      "mimeType": "image/jpeg"
    },
    {
      "bufferView": 3,
      "mimeType": "image/jpeg"
    },
    {
      "bufferView": 4,
      "mimeType": "image/jpeg"
    },
    {
      "bufferView": 5,
      "mimeType": "image/jpeg"
    }
  ],
  "textures": [
    {
      "source": 0,
      "sampler": 0
    },
    {
      "source": 1,
      "sampler": 0
    },
    {
      "source": 2,
      "sampler": 0
    },
    {
      "source": 3,
      "sampler": 0
    },
    {
      "source": 4,
      "sampler": 0
    },
    {
      "source": 5,
      "sampler": 0
    }
  ],
  "meshes": [
    {
      "primitives": [
        {
          "attributes": {
            "POSITION": 2,
            "NORMAL": 3,
            "TEXCOORD_0": 4
          },
          "indices": 5,
          "mode": 4,
          "material": 0
        },
        {
          "attributes": {
            "POSITION": 2,
            "NORMAL": 3,
            "TEXCOORD_0": 4
          },
          "indices": 6,
          "mode": 4,
          "material": 1
        },
        {
          "attributes": {
            "POSITION": 0,
            "NORMAL": 1
          },
          "indices": 7,
          "mode": 4,
          "material": 2
        },
        {
          "attributes": {
            "POSITION": 0,
            "NORMAL": 1
          },
          "indices": 8,
          "mode": 4,
          "material": 3
        },
        {
          "attributes": {
            "POSITION": 0,
            "NORMAL": 1
          },
          "indices": 9,
          "mode": 4,
          "material": 4
        },
        {
          "attributes": {
            "POSITION": 2,
            "NORMAL": 3,
            "TEXCOORD_0": 4
          },
          "indices": 10,
          "mode": 4,
          "material": 5
        },
        {
          "attributes": {
            "POSITION": 0,
            "NORMAL": 1
          },
          "indices": 11,
          "mode": 4,
          "material": 6
        },
        {
          "attributes": {
            "POSITION": 2,
            "NORMAL": 3,
            "TEXCOORD_0": 4
          },
          "indices": 12,
          "mode": 4,
          "material": 7
        },
        {
          "attributes": {
            "POSITION": 2,
            "NORMAL": 3,
            "TEXCOORD_0": 4
          },
          "indices": 13,
          "mode": 4,
          "material": 8
        },
        {
          "attributes": {
            "POSITION": 2,
            "NORMAL": 3,
            "TEXCOORD_0": 4
          },
          "indices": 14,
          "mode": 4,
          "material": 9
        }
      ]
    }
  ],
  "accessors": [
    {
      "bufferView": 6,
      "componentType": 5126,
      "count": 1602,
      "type": "VEC3",
      "min": [
        -6.6659911082433245,
        -3.428417340657524e-16,
        -5.599030419292357
      ],
      "max": [
        6.934002011756684,
        2.047000224000002,
        5.53095402630765
      ]
    },
    {
      "bufferView": 7,
      "componentType": 5126,
      "count": 1602,
      "type": "VEC3",
      "min": [
        -1.0,
        -1.0,
        -1.0
      ],
      "max": [
        1.0,
        1.0,
        1.0
      ]
    },
    {
      "bufferView": 8,
      "componentType": 5126,
      "count": 28686,
      "type": "VEC3",
      "min": [
        -7.265989908243326,
        -3.428417340657524e-16,
        -6.169037813692359
      ],
      "max": [
        7.534031291756686,
        5.890900080000004,
        6.1309528263076505
      ]
    },
    {
      "bufferView": 9,
      "componentType": 5126,
      "count": 28686,
      "type": "VEC3",
      "min": [
        -1.0,
        -1.0,
        -1.0
      ],
      "max": [
        1.0,
        1.0,
        1.0
      ]
    },
    {
      "bufferView": 10,
      "componentType": 5126,
      "count": 28686,
      "type": "VEC2",
      "min": [
        -65.05229634655028,
        -21.0984548019662
      ],
      "max": [
        65.01124870318232,
        21.33210153180233
      ]
    },
    {
      "bufferView": 12,
      "componentType": 5123,
      "count": 38433,
      "type": "SCALAR"
    },
    {
      "bufferView": 12,
      "componentType": 5123,
      "count": 7440,
      "type": "SCALAR",
      "byteOffset": 76866
    },
    {
      "bufferView": 11,
      "componentType": 5123,
      "count": 129,
      "type": "SCALAR"
    },
    {
      "bufferView": 11,
      "componentType": 5123,
      "count": 2556,
      "type": "SCALAR",
      "byteOffset": 258
    },
    {
      "bufferView": 11,
      "componentType": 5123,
      "count": 873,
      "type": "SCALAR",
      "byteOffset": 5370
    },
    {
      "bufferView": 12,
      "componentType": 5123,
      "count": 621,
      "type": "SCALAR",
      "byteOffset": 91746
    },
    {
      "bufferView": 11,
      "componentType": 5123,
      "count": 15,
      "type": "SCALAR",
      "byteOffset": 7116
    },
    {
      "bufferView": 12,
      "componentType": 5123,
      "count": 126,
      "type": "SCALAR",
      "byteOffset": 92988
    },
    {
      "bufferView": 12,
      "componentType": 5123,
      "count": 36,
      "type": "SCALAR",
      "byteOffset": 93240
    },
    {
      "bufferView": 12,
      "componentType": 5123,
      "count": 27,
      "type": "SCALAR",
      "byteOffset": 93312
    }
  ],
  "bufferViews": [
    {
      "buffer": 0,
      "byteLength": 30486
    },
    {
      "buffer": 0,
      "byteOffset": 30486,
      "byteLength": 22347
    },
    {
      "buffer": 0,
      "byteOffset": 52833,
      "byteLength": 45514
    },
    {
      "buffer": 0,
      "byteOffset": 98347,
      "byteLength": 16365
    },
    {
      "buffer": 0,
      "byteOffset": 114712,
      "byteLength": 57687
    },
    {
      "buffer": 0,
      "byteOffset": 172399,
      "byteLength": 11520
    },
    {
      "buffer": 0,
      "byteOffset": 183924,
      "byteLength": 19224,
      "target": 34962,
      "byteStride": 12
    },
    {
      "buffer": 0,
      "byteOffset": 203148,
      "byteLength": 19224,
      "target": 34962,
      "byteStride": 12
    },
    {
      "buffer": 0,
      "byteOffset": 222372,
      "byteLength": 344232,
      "target": 34962,
      "byteStride": 12
    },
    {
      "buffer": 0,
      "byteOffset": 566604,
      "byteLength": 344232,
      "target": 34962,
      "byteStride": 12
    },
    {
      "buffer": 0,
      "byteOffset": 910840,
      "byteLength": 229488,
      "target": 34962,
      "byteStride": 8
    },
    {
      "buffer": 0,
      "byteOffset": 1140328,
      "byteLength": 7146,
      "target": 34963
    },
    {
      "buffer": 0,
      "byteOffset": 1147474,
      "byteLength": 93366,
      "target": 34963
    }
  ],
  "buffers": [
    {
      "uri": "data:application/octet-stream;base64,",
      "byteLength": 1240840
    }
  ]
}