{
  "asset": {
    "version": "2.0",
    "generator": "Sketchup glTF Exporter v1.2.6 by Centaur"
  },
  "scene": 0,
  "scenes": [
    {
      "nodes": [
        0
      ]
    }
  ],
  "samplers": [
    {
    }
  ],
  "nodes": [
    {
      "name": "root",
      "mesh": 0
    }
  ],
  "materials": [
    {
      "pbrMetallicRoughness": {
        "baseColorTexture": {
          "index": 0
        },
        "metallicFactor": 0.1,
        "roughnessFactor": 0.9
      },
      "name": "Alumínio"
    },
    {
      "pbrMetallicRoughness": {
        "baseColorTexture": {
          "index": 1
        },
        "metallicFactor": 0.1,
        "roughnessFactor": 0.9
      },
      "name": "Folheado de madeira 01",
      "doubleSided": true
    },
    {
      "pbrMetallicRoughness": {
        "baseColorFactor": [
          0.0478,
          0.0478,
          0.0478,
          1.0
        ],
        "metallicFactor": 0.1,
        "roughnessFactor": 0.9
      },
      "name": "<auto>1",
      "doubleSided": true
    },
    {
      "pbrMetallicRoughness": {
        "baseColorTexture": {
          "index": 2
        },
        "metallicFactor": 0.1,
        "roughnessFactor": 0.9
      },
      "name": "Vidro de segurança translúcido",
      "doubleSided": true,
      "alphaMode": "BLEND"
    },
    {
      "pbrMetallicRoughness": {
        "baseColorTexture": {
          "index": 3
        },
        "metallicFactor": 0.1,
        "roughnessFactor": 0.9
      },
      "name": "Bloco de concreto",
      "doubleSided": true
    },
    {
      "pbrMetallicRoughness": {
        "baseColorTexture": {
          "index": 4
        },
        "metallicFactor": 0.1,
        "roughnessFactor": 0.9
      },
      "name": "Telhado estilo espanhol"
    },
    {
      "pbrMetallicRoughness": {
        "baseColorTexture": {
          "index": 5
        },
        "metallicFactor": 0.1,
        "roughnessFactor": 0.9
      },
      "name": "Pedra de alvenaria colorida",
      "doubleSided": true
    },
    {
      "pbrMetallicRoughness": {
        "baseColorFactor": [
          0.2011,
          0.1835,
          0.1835,
          1.0
        ],
        "metallicFactor": 0.1,
        "roughnessFactor": 0.9
      },
      "name": "Chris_Shoe_Sole",
      "doubleSided": true
    },
    {
      "pbrMetallicRoughness": {
        "baseColorTexture": {
          "index": 6
        },
        "metallicFactor": 0.1,
        "roughnessFactor": 0.9
      },
      "name": "Azulejo básico",
      "doubleSided": true
    }
  ],
  "images": [
    {
      "bufferView": 0,
      "mimeType": "image/jpeg"
    },
    {
      "bufferView": 1,
      "mimeType": "image/jpeg"
    },
    {
      "bufferView": 2,
      "mimeType": "image/jpeg"
    },
    {
      "bufferView": 3,
      "mimeType": "image/jpeg"
    },
    {
      "bufferView": 4,
      "mimeType": "image/jpeg"
    },
    {
      "bufferView": 5,
      "mimeType": "image/jpeg"
    },
    {
      "bufferView": 6,
      "mimeType": "image/jpeg"
    }
  ],
  "textures": [
    {
      "source": 0,
      "sampler": 0
    },
    {
      "source": 1,
      "sampler": 0
    },
    {
      "source": 2,
      "sampler": 0
    },
    {
      "source": 3,
      "sampler": 0
    },
    {
      "source": 4,
      "sampler": 0
    },
    {
      "source": 5,
      "sampler": 0
    },
    {
      "source": 6,
      "sampler": 0
    }
  ],
  "meshes": [
    {
      "primitives": [
        {
          "attributes": {
            "POSITION": 2,
            "NORMAL": 3,
            "TEXCOORD_0": 4
          },
          "indices": 5,
          "mode": 4,
          "material": 0
        },
        {
          "attributes": {
            "POSITION": 2,
            "NORMAL": 3,
            "TEXCOORD_0": 4
          },
          "indices": 6,
          "mode": 4,
          "material": 1
        },
        {
          "attributes": {
            "POSITION": 0,
            "NORMAL": 1
          },
          "indices": 7,
          "mode": 4,
          "material": 2
        },
        {
          "attributes": {
            "POSITION": 2,
            "NORMAL": 3,
            "TEXCOORD_0": 4
          },
          "indices": 8,
          "mode": 4,
          "material": 3
        },
        {
          "attributes": {
            "POSITION": 2,
            "NORMAL": 3,
            "TEXCOORD_0": 4
          },
          "indices": 9,
          "mode": 4,
          "material": 4
        },
        {
          "attributes": {
            "POSITION": 2,
            "NORMAL": 3,
            "TEXCOORD_0": 4
          },
          "indices": 10,
          "mode": 4,
          "material": 5
        },
        {
          "attributes": {
            "POSITION": 2,
            "NORMAL": 3,
            "TEXCOORD_0": 4
          },
          "indices": 11,
          "mode": 4,
          "material": 6
        },
        {
          "attributes": {
            "POSITION": 0,
            "NORMAL": 1
          },
          "indices": 12,
          "mode": 4,
          "material": 7
        },
        {
          "attributes": {
            "POSITION": 2,
            "NORMAL": 3,
            "TEXCOORD_0": 4
          },
          "indices": 13,
          "mode": 4,
          "material": 8
        }
      ]
    }
  ],
  "accessors": [
    {
      "bufferView": 7,
      "componentType": 5126,
      "count": 80,
      "type": "VEC3",
      "min": [
        -5.007425774734207,
        -1.2800000006022289e-07,
        -3.389693847649458
      ],
      "max": [
        4.9925745452658,
        3.1364101600000023,
        3.6102819923505494
      ]
    },
    {
      "bufferView": 8,
      "componentType": 5126,
      "count": 80,
      "type": "VEC3",
      "min": [
        -0.49999697607727306,
        -1.0,
        -1.0
      ],
      "max": [
        0.4999969760772742,
        1.0,
        0.5000069152624319
      ]
    },
    {
      "bufferView": 9,
      "componentType": 5126,
      "count": 7663,
      "type": "VEC3",
      "min": [
        -5.007425774734207,
        -1.2800000006022289e-07,
        -3.389693847649458
      ],
      "max": [
        4.9925745452658,
        4.891540000000004,
        3.6102819923505494
      ]
    },
    {
      "bufferView": 10,
      "componentType": 5126,
      "count": 7663,
      "type": "VEC3",
      "min": [
        -1.0,
        -1.0,
        -1.0
      ],
      "max": [
        1.0,
        1.0,
        1.0
      ]
    },
    {
      "bufferView": 11,
      "componentType": 5126,
      "count": 7663,
      "type": "VEC2",
      "min": [
        -13.902362253064982,
        -12.954069160105
      ],
      "max": [
        13.853637746935036,
        10.318547192751138
      ]
    },
    {
      "bufferView": 13,
      "componentType": 5123,
      "count": 5688,
      "type": "SCALAR"
    },
    {
      "bufferView": 13,
      "componentType": 5123,
      "count": 8154,
      "type": "SCALAR",
      "byteOffset": 11376
    },
    {
      "bufferView": 12,
      "componentType": 5121,
      "count": 102,
      "type": "SCALAR"
    },
    {
      "bufferView": 13,
      "componentType": 5123,
      "count": 78,
      "type": "SCALAR",
      "byteOffset": 27684
    },
    {
      "bufferView": 13,
      "componentType": 5123,
      "count": 234,
      "type": "SCALAR",
      "byteOffset": 27840
    },
    {
      "bufferView": 13,
      "componentType": 5123,
      "count": 78,
      "type": "SCALAR",
      "byteOffset": 28308
    },
    {
      "bufferView": 13,
      "componentType": 5123,
      "count": 138,
      "type": "SCALAR",
      "byteOffset": 28464
    },
    {
      "bufferView": 12,
      "componentType": 5121,
      "count": 66,
      "type": "SCALAR",
      "byteOffset": 102
    },
    {
      "bufferView": 13,
      "componentType": 5123,
      "count": 18,
      "type": "SCALAR",
      "byteOffset": 28740
    }
  ],
  "bufferViews": [
    {
      "buffer": 0,
      "byteLength": 22347
    },
    {
      "buffer": 0,
      "byteOffset": 22347,
      "byteLength": 38298
    },
    {
      "buffer": 0,
      "byteOffset": 60645,
      "byteLength": 5526
    },
    {
      "buffer": 0,
      "byteOffset": 66171,
      "byteLength": 45514
    },
    {
      "buffer": 0,
      "byteOffset": 111685,
      "byteLength": 57687
    },
    {
      "buffer": 0,
      "byteOffset": 169372,
      "byteLength": 13050
    },
    {
      "buffer": 0,
      "byteOffset": 182422,
      "byteLength": 46330
    },
    {
      "buffer": 0,
      "byteOffset": 228756,
      "byteLength": 960,
      "target": 34962,
      "byteStride": 12
    },
    {
      "buffer": 0,
      "byteOffset": 229716,
      "byteLength": 960,
      "target": 34962,
      "byteStride": 12
    },
    {
      "buffer": 0,
      "byteOffset": 230676,
      "byteLength": 91956,
      "target": 34962,
      "byteStride": 12
    },
    {
      "buffer": 0,
      "byteOffset": 322632,
      "byteLength": 91956,
      "target": 34962,
      "byteStride": 12
    },
    {
      "buffer": 0,
      "byteOffset": 414592,
      "byteLength": 61304,
      "target": 34962,
      "byteStride": 8
    },
    {
      "buffer": 0,
      "byteOffset": 475896,
      "byteLength": 168,
      "target": 34963
    },
    {
      "buffer": 0,
      "byteOffset": 476064,
      "byteLength": 28776,
      "target": 34963
    }
  ],
  "buffers": [
    {
      "uri": "data:application/octet-stream;base64,",
      "byteLength": 504840
    }
  ]
}